<?xml version="1.0" encoding="utf-8"?>
<!-- Generator: Adobe Illustrator 23.0.0, SVG Export Plug-In . SVG Version: 6.00 Build 0)  -->
<svg version="1.1" id="Capa_1" xmlns="http://www.w3.org/2000/svg" xmlns:xlink="http://www.w3.org/1999/xlink" x="0px" y="0px"
	 viewBox="0 0 29 29" style="enable-background:new 0 0 29 29;" xml:space="preserve">
<g>
	<g>
		<path d="M14.5,0C6.5,0,0,6.5,0,14.5C0,22.5,6.5,29,14.5,29c8,0,14.5-6.5,14.5-14.5C29,6.5,22.5,0,14.5,0z M14.5,26.6
			c-6.7,0-12.1-5.4-12.1-12.1c0-6.7,5.4-12.1,12.1-12.1c6.7,0,12.1,5.4,12.1,12.1C26.6,21.2,21.2,26.6,14.5,26.6z"/>
		<path d="M14.3,21.3c0.1,0.1,0.2,0.2,0.4,0.2s0.3-0.1,0.4-0.2l3.7-4.8c0.1-0.1,0.1-0.3,0.1-0.5c-0.1-0.2-0.2-0.3-0.4-0.3
			c-0.8,0-1.6,0-1.6,0s0-6.4,0-7.7c0,0,0-0.3-0.4-0.3c-0.4,0-3.1,0-3.7,0c-0.6,0-0.5,0.4-0.5,0.4c0,1.4,0,7.6,0,7.6s-0.7,0-1.6,0
			c-0.2,0-0.3,0.1-0.4,0.3c-0.1,0.2-0.1,0.4,0.1,0.5L14.3,21.3z"/>
	</g>
</g>
</svg>
