<svg xmlns="http://www.w3.org/2000/svg" viewBox="0 0 186.4 178.53"><defs><style>.a{fill:#6568c9;}</style></defs><title>Asset 2</title><path class="a" d="M182.4,18.25c-3.59-1.08-7.28-.72-10.93-.65-2.54,0-3.57-.69-3.47-3.39a49.92,49.92,0,0,0-.42-10c-.4-2.47-2.76-5.57-4.91-3.57-8.6,8.2-21.87,13.79-18.43,29.58a8.17,8.17,0,0,1-.1,3.48c-.79,3.44-3.92,4.86-6.37,2.86C122,23.93,103.85,18.09,80.39,18.09c-9.22-.39-21.16,2.37-32.43,7.6C-3.55,49.54-16.86,114.11,24.24,153.85c26.19,25.27,57.83,30.92,91.91,17.92,51.34-19.65,68.31-82,33-124.16-.92-1.1-3.16-2.1-1.69-4.1,1.15-1.54,2.44-3.09,4.81-3.09,4.33.06,8.67-.06,13-.06,1.61,0,3.23.13,4.61-1.26,4.8-4.84,9.79-9.5,14.52-14.42C187.61,21.38,187,19.63,182.4,18.25Zm-25.17,95.48a73.86,73.86,0,0,1-64,55.63C61,172.92,30.51,156.89,16.12,128.81-1.75,93.9,14,50.74,51,33.55,62,28.41,72.55,26.09,87.72,26.24c13.62-.17,28.83,5.29,42.67,15.08,2.77,2,3.58,3.41.49,6a79.43,79.43,0,0,0-9.66,9.4c-2.43,2.82-4.14,2.43-7,.46C93.67,42.75,64,45.5,46.35,63.22,21.66,88,29.16,128.36,61.23,143.09c30.91,14.22,67-2.88,74.25-35.42,3.16-14.12-.31-27.07-8.76-38.62-2-2.72-2.15-4.18.56-6.39a128.61,128.61,0,0,0,10.49-10c1.94-2,3.26-2,5,.25C157,71,162.82,91.19,157.23,113.73Zm-76.13-13c2.19,2.19,4.15,1.6,6.15-.15,2.5-2.19,5-4.35,7.43-6.66,2.22-2.16,2.92-1.14,3.4,1.28A13.87,13.87,0,0,1,90,110.36c-5.67,2.56-13.51.75-17.27-4a13.85,13.85,0,0,1,0-16.73c3.83-5,11-6.5,17.59-3.36-3.06,2.89-6,5.53-8.79,8.34C79.76,96.42,78.91,98.54,81.1,100.73ZM88.88,77c-8.87-3.55-17.4.77-23.31,8.28-5.13,6.51-6.15,14.07-2.39,21.6,4.19,8.4,11,12.93,20.76,12.84,17.39-.14,27.6-15.53,20.57-31.36-.9-2-.84-3.16.84-4.65q5-4.5,9.7-9.36c2.41-2.51,3.89-1.91,5.71.74,16.18,23.65,2.65,57.22-25.6,63.38a42.26,42.26,0,0,1-10.92,1.22c-23.72,0-42.29-16.57-43.81-39.55s16.73-41.38,38.71-43.6a45.25,45.25,0,0,1,29.57,6.87c2.31,1.47,2.78,2.53.61,4.41a50.87,50.87,0,0,0-4.64,4.53C100.37,77.15,96.62,80.05,88.88,77ZM168.51,28.7c-3.63,5.42-9.14,3.35-14.07,3.49-1.33,0-1.31-1.16-1.48-2.16-1.18-7.15-.13-9.8,6.39-14.89a24,24,0,0,1,.58,3.46c.06,4.55,2.12,6.52,6.79,5.8,1.3-.2,3.28-.83,4,.83S169.29,27.54,168.51,28.7Z"/></svg>