<svg xmlns="http://www.w3.org/2000/svg" viewBox="0 0 168.9 151.73"><defs><style>.a{fill:#6669c8;}</style></defs><title>Asset 1</title><path class="a" d="M97.92,151.73,60,130.21l36.7-21.37c1.36.35,1.19,1.1,1.22,1.68.31,8.72.3,8.6,9.29,8.75s17.91-.37,25.71-5.8c10.75-7.49,16.26-20.79,13.64-33.09-2.82-13.17-12.83-23.13-25.61-25.47-13.21-2.43-26.52,3-33.44,14.48C85,73.49,83.2,73.17,79.93,71a115.31,115.31,0,0,0-11.19-6.48c-2.34-1.19-2.27-2.31-1.15-4.4,9.74-18.22,31.74-30.23,51.45-28,23.5,2.64,42.26,18.15,47.9,39.6,9.43,35.88-16.31,69.36-53.37,69.42-3.68,0-7.39.27-11-.07-3.91-.37-4.75,1.1-4.66,4.82C97.92,147.59,97.92,149.28,97.92,151.73Z"/><path class="a" d="M71,0,108.8,21.51,71,43.61c0-3.25-.09-5.83,0-8.41.09-2-.61-3-2.68-3-7.49.15-15-.66-22.4,1.37a32.36,32.36,0,0,0-.15,62.5A31.8,31.8,0,0,0,82,81.37c2-3.47,3.34-3.62,6.34-1.56,3.81,2.62,7.86,4.9,11.9,7.15,2.33,1.29,2.59,2.55,1.26,4.9C91,110.42,68.83,121.72,47.72,119.09,26.19,116.41,7.66,100.51,2.06,79.9-7.62,44.31,18,10.82,54.86,10.8c3.52,0,7,0,10.54.08,5,.12,5.7-1.27,5.56-5.81C71,4.81,71,2.29,71,0Z"/></svg>