<svg xmlns="http://www.w3.org/2000/svg" viewBox="0 0 179.38 169.57"><defs><style>.a{fill:#6669c8;}.b{fill:#6669c9;}</style></defs><title>Asset 3</title><path class="a" d="M131.68,45.9c-4.05-1.06-5.15-2.73-5.05-6.73.28-11.5,0-23,.16-34.5,0-3.3-.66-4.67-4.37-4.67q-59,.18-118,0C.88,0,0,1.05,0,4.51.15,25.68.07,46.84.07,68c0,21.33.08,42.67-.07,64,0,3.31.94,4.17,4.18,4.17,16-.14,32,0,48-.14,3,0,4.79.77,6.48,3.34a65.83,65.83,0,0,0,86.19,22.55c22.43-11.8,34.86-31.1,34.52-56.1C178.93,73.8,157.13,52.52,131.68,45.9ZM60.84,112.18c-3.33-.53-5.8-2.08-5.79-5.67,0-3.79,2.37-5.73,6-5.72s5.7,2.07,5.77,5.5C66.91,110.09,64.32,111.8,60.84,112.18Zm1.25-49.29c-12-.18-24,.19-36-.19-5-.16-4.26,2.65-4.3,5.64s-.52,5.75,4.38,5.56c10.39-.35,20.82-.1,31.88-.1-4.19,8-7.58,15.49-8.44,23.87-.24,2.35-2.1,2.17-3.79,2.17-6.83,0-13.66-.07-20.48-.07-3.39,0-3.48,3.08-3.48,5.81,0,3.45.68,5.22,3.57,5.22,6.65-.31,13.33.06,20-.14,2.75-.08,4,.89,4.15,3.52a40.14,40.14,0,0,0,2.62,11.64c1,2.64-.14,2.78-2.14,2.78-12.83,0-25.65-.08-38.47,0-4.2,0-3.31-2.81-3.31-5.15V22.54c0-2.83-.18-5.46-.06-8.49.18-4.73.93-6.22,5.89-6.16C37.42,8.16,60.74,8,84.05,8c10.16,0,20.32.11,30.47-.06,3.22,0,4.39.89,4.32,4.23-.2,9.15-.09,18.31,0,27.47,0,2.39,0,3.81-3.44,3.75-17-.31-32.08,5-44.83,16.29A11.39,11.39,0,0,1,62.09,62.89Zm58-8.22c-.19,3.95-2.48,6-6,6-3.37,0-5.78-2.06-5.87-5.56-.1-3.81,2.43-5.88,6-5.93S119.65,51.22,120.05,54.67Zm-6.18,108.94c-3.27-.08-5.77-2.13-5.74-5.7,0-3.78,2.54-5.52,6.08-5.95,3.32.63,5.8,2.13,5.74,5.81S117.41,163.69,113.87,163.61Zm36-83q-11.1,10.78-22.27,21.5a7.4,7.4,0,0,0-2.7,5.52c-.23,6-5.1,10.32-11.23,10.44-5.4.11-10.34-3.22-11.52-8.46a8.13,8.13,0,0,0-3.53-5.08Q87.85,96.46,77.09,88.36c-2.56-1.92-4.84-4.27-2.61-7.49,2.32-3.38,5.5-2.39,8.3-.3,6.8,5.07,13.53,10.24,20.34,15.29,1.09.81,2,2.52,3.84,1.49,3.79-2.12,7.61-3.15,11.86-1.11,1.53.73,2.22-1.1,3.1-1.94,6.51-6.2,12.92-12.5,19.42-18.71a29.29,29.29,0,0,1,2.19-2c2.5-2.12,5.25-2.59,7.5,0S152,78.59,149.91,80.59Zm17,31.46c-3.46-.15-5.74-2.32-5.61-5.71.14-3.54,2.43-5.74,6.24-5.57,3.54.16,5.3,2.24,5.67,5.73C172.7,110.15,170.61,112.2,166.91,112.05Z"/><path class="b" d="M62.94,25.93c11.81,0,23.64.2,35.45-.11,4.24-.11,5.06,1.51,4.78,5.16-.25,3.09.74,6-4.53,6q-36.19-.43-72.4,0c-5.37.06-4.21-3-4.47-6-.31-3.6.44-5.27,4.72-5.16C38.63,26.14,50.84,25.93,62.94,25.93Z"/></svg>