<svg xmlns="http://www.w3.org/2000/svg" viewBox="0 0 125.7 188.43"><defs><style>.a{fill:#6669c8;}.b{fill:#696cc8;}.c{fill:#676ac8;}.d{fill:#6a6dc8;}.e{fill:#6a6cc8;}</style></defs><title>Asset 4</title><path class="a" d="M125.53,106.79V30.84c0-6-1.07-7-7-7h-16c-1.51,0-3.36.12-3.06-2.14.89-6.8-3.21-7.29-8.28-6.88-2.15.18-4.35-.17-6.49.08-3.91.45-6.17-.56-7.69-4.74A14.74,14.74,0,0,0,63.86.06c-6-.49-11.55,2.3-13.55,7.6-2.78,7.28-7.61,8-13.89,7.21-1.49-.18-3,.1-4.49,0-4-.4-6.07,1.1-5.45,5.36.41,2.9-.94,3.72-3.71,3.62-5.15-.18-10.32-.05-15.48-.05C.87,23.77,0,24.56,0,30.87V180.76c0,6.34,1.31,7.67,7.56,7.67H118.48c6.31,0,7.22-.94,7.22-7.23V106.76Zm-12.74,73.85q-49.71-.24-99.42,0c-4,0-4.94-1.25-4.93-5.07q.18-69.45,0-138.89c0-3.65.84-5.32,4.69-4.76a30.59,30.59,0,0,0,4.49,0c8.23,0,8.32,0,9,8.18.23,2.59,1.44,3.51,3.8,3.51H95.36c3.75,0,4.13-2.42,4.15-5.4,0-6.49.12-6.49,6.72-6.49,11.23,0,11.24,0,11.24,11v63l.23,0c0,23.31-.1,46.62.09,69.94C117.79,179.7,116.67,180.7,112.79,180.64Z"/><path class="b" d="M75.21,144.94H95.13c3,0,5.53.65,5.62,4.12s-2.57,4.37-5.45,4.38c-13.44.05-26.89,0-40.33,0-3,0-5.67-1-5.69-4.25,0-3.61,2.86-4.32,6-4.28C61.93,145,68.57,144.94,75.21,144.94Z"/><path class="b" d="M74.82,127.46h-19c-3.21,0-6.52-.44-6.47-4.44,0-3.67,3.1-4.12,6.2-4.11q19.5.09,39,0c3,0,6.11.25,6.17,4.08.07,4.17-3.26,4.44-6.4,4.45C87.82,127.48,81.32,127.46,74.82,127.46Z"/><path class="b" d="M75.11,93H94.6c3,0,6.1.39,6.13,4.2s-3,4.33-6,4.33H55.26c-3.2,0-6-.78-5.91-4.42.09-3.31,2.87-4.13,5.8-4.13Z"/><path class="c" d="M75.19,66.55H95.7c2.76,0,5.17.61,5.08,4-.09,3.18-2.29,4.11-5.13,4.11H54.7c-2.81,0-5.28-.8-5.39-3.86-.16-3.37,2.39-4.3,5.39-4.27C61.54,66.6,68.37,66.55,75.19,66.55Z"/><path class="d" d="M42.64,119c-1.28,3.26-3.87,4.92-5.91,7-5.06,5.2-8,4.79-11.84-1.39-.78-1.26-1.07-2.43,0-3.6s2.62-1.75,3.51-.69c3.23,3.84,4.86.63,6.9-1.24a13.39,13.39,0,0,1,3-2.47C41,115.32,41.63,117.53,42.64,119Z"/><path class="d" d="M42.61,145.76c-2.91,3.58-5.91,7.54-10,9.76-3.31,1.78-4.85-2.46-7-4.22-1.37-1.11-2.1-2.7-.63-4.29s3.09-1.57,4.33-.06c2,2.4,3.21,1.06,4.68-.47a20,20,0,0,1,4-3.64C40.64,141.21,41.78,143,42.61,145.76Z"/><path class="d" d="M42.37,65.6c0,1.72-8,10.64-9.67,10.94-4.18.74-5.37-3.25-7.81-5.25a2.23,2.23,0,0,1-.23-3.14l0,0c.88-1.26,2.54-2,3.44-1,3.77,4,5.5.28,7.75-1.74,1.57-1.41,3-3.49,5.48-1.48A4.89,4.89,0,0,1,42.37,65.6Z"/><path class="e" d="M30.77,103.81a15.46,15.46,0,0,1-6.5-6.58c-.51-1,.2-1.94,1-2.58,1.16-.94,2.66-1.19,3.6,0,2.25,2.77,3.79,1.36,5.44-.57A22.22,22.22,0,0,1,36.43,92c1.61-1.48,3.42-2.35,5.22-.48s.32,3.31-1,4.64c-2.11,2.13-4.24,4.23-6.34,6.35A3.93,3.93,0,0,1,30.77,103.81Z"/></svg>